<svg width="27" height="27" viewBox="0 0 27 27" fill="none" xmlns="http://www.w3.org/2000/svg">
<path d="M25.9307 6.06211L21.2403 1.34771C20.9304 1.03933 20.5109 0.866211 20.0737 0.866211C19.6365 0.866211 19.217 1.03933 18.9071 1.34771L2.27885 17.952L0.760649 24.5042C0.708276 24.7437 0.710071 24.9919 0.765904 25.2307C0.821736 25.4694 0.930194 25.6926 1.08336 25.8841C1.23652 26.0755 1.43051 26.2304 1.65117 26.3372C1.87183 26.4441 2.11358 26.5003 2.35875 26.5018C2.47299 26.5134 2.5881 26.5134 2.70234 26.5018L9.32647 24.9836L25.9307 8.39534C26.2391 8.08539 26.4122 7.66595 26.4122 7.22872C26.4122 6.7915 26.2391 6.37206 25.9307 6.06211ZM8.52742 23.5453L2.3188 24.8478L3.73312 18.759L16.1743 6.36575L20.9686 11.1601L8.52742 23.5453ZM22.0394 10.0014L17.2451 5.20712L20.0258 2.44241L24.7402 7.23671L22.0394 10.0014Z" fill="white"/>
</svg>
